<?xml version="1.0" standalone="no"?>
<!DOCTYPE svg PUBLIC "-//W3C//DTD SVG 1.1//EN" "http://www.w3.org/Graphics/SVG/1.1/DTD/svg11.dtd" >
<svg xmlns="http://www.w3.org/2000/svg">
<metadata>
Created by FontForge 20120731 at Sun Jul 16 12:57:54 2017
 By admin
</metadata>
<defs>
<font id="iconfont" horiz-adv-x="1024" >
  <font-face 
    font-family="iconfont"
    font-weight="500"
    font-stretch="normal"
    units-per-em="1024"
    panose-1="2 0 6 3 0 0 0 0 0 0"
    ascent="896"
    descent="-128"
    x-height="792"
    bbox="-4348 -218 2997 2648"
    underline-thickness="0"
    underline-position="0"
    unicode-range="U+0078-E9AB"
  />
<missing-glyph 
 />
    <glyph glyph-name=".notdef" 
 />
    <glyph glyph-name=".notdef" 
 />
    <glyph glyph-name=".null" horiz-adv-x="0" 
 />
    <glyph glyph-name="nonmarkingreturn" horiz-adv-x="341" 
 />
    <glyph glyph-name="x" unicode="x" horiz-adv-x="1001" 
d="M281 543q-27 -1 -53 -1h-83q-18 0 -36.5 -6t-32.5 -18.5t-23 -32t-9 -45.5v-76h912v41q0 16 -0.5 30t-0.5 18q0 13 -5 29t-17 29.5t-31.5 22.5t-49.5 9h-133v-97h-438v97zM955 310v-52q0 -23 0.5 -52t0.5 -58t-10.5 -47.5t-26 -30t-33 -16t-31.5 -4.5q-14 -1 -29.5 -0.5
t-29.5 0.5h-32l-45 128h-439l-44 -128h-29h-34q-20 0 -45 1q-25 0 -41 9.5t-25.5 23t-13.5 29.5t-4 30v167h911zM163 247q-12 0 -21 -8.5t-9 -21.5t9 -21.5t21 -8.5q13 0 22 8.5t9 21.5t-9 21.5t-22 8.5zM316 123q-8 -26 -14 -48q-5 -19 -10.5 -37t-7.5 -25t-3 -15t1 -14.5
t9.5 -10.5t21.5 -4h37h67h81h80h64h36q23 0 34 12t2 38q-5 13 -9.5 30.5t-9.5 34.5q-5 19 -11 39h-368zM336 498v228q0 11 2.5 23t10 21.5t20.5 15.5t34 6h188q31 0 51.5 -14.5t20.5 -52.5v-227h-327z" />
    <glyph glyph-name="qipao" unicode="&#xe601;" 
d="M512.5 719q-121.5 0 -225 -49t-163.5 -133t-60 -183q0 -88 48.5 -165t132.5 -128l-36 -209l185 150q58 -13 118 -13q122 0 225 49t163 133t60 183t-60 183t-163 133t-224.5 49zM318 449q27 0 46 -19t19 -46t-19 -45.5t-46 -18.5t-46 18.5t-19 45.5t19 46t46 19zM509 320
q-27 0 -45.5 18.5t-18.5 45.5t18.5 46t45.5 19t46 -19t19 -46t-19 -45.5t-46 -18.5zM700.5 320q-26.5 0 -45.5 18.5t-19 45.5t19 46t45.5 19t45.5 -19t19 -46t-19 -45.5t-45.5 -18.5z" />
    <glyph glyph-name="icon" unicode="&#xe611;" 
d="M828 426q0 87 -43 160.5t-116.5 116.5t-160.5 43t-160.5 -43t-116 -116.5t-42.5 -160.5q0 -95 52 -174h-1l240 -383v0q8 -18 28 -18t29 18v0l239 383v0q52 79 52 174v0zM508 572q61 0 103.5 -42.5t42.5 -103t-42.5 -103t-103 -42.5t-103.5 42.5t-43 103t43 103t103 42.5
v0zM508 572z" />
    <glyph glyph-name="tianjia" unicode="&#xe6ad;" 
d="M535 -195v460h458q10 0 16.5 7t6.5 16t-6.5 16t-16.5 7h-458v460q0 9 -6.5 16t-16 7t-16.5 -7t-7 -16v-460h-459q-9 0 -16 -7t-7 -16t7 -16t16 -7h459v-460q0 -9 7 -16t16.5 -7t16 7t6.5 16z" />
    <glyph glyph-name="biaoqian" unicode="&#xe614;" horiz-adv-x="1025" 
d="M1024 396v338q0 32 -23 55t-55 23h-331h-14q-55 0 -76 -21l-506 -506q-19 -19 -19 -46t19 -45l387 -387q18 -19 45 -19t46 19l506 506q10 10 15 25.5t5.5 26.5t0.5 31zM764 465q-36 0 -61.5 25.5t-25.5 61.5t25.5 61t61.5 25t61 -25t25 -61t-25 -61.5t-61 -25.5z" />
    <glyph glyph-name="tuige" unicode="&#xe613;" 
d="M642 305l69 69q5 5 7 10.5t2 8.5v4q0 6 -2 10.5t-4 7.5l-3 2q-4 4 -9 6t-8 2l-3 1q-6 0 -12 -2.5t-8 -4.5l-3 -2l-69 -69l-69 69q-8 9 -23 9q-11 0 -20 -9q-8 -7 -8 -20q-2 -12 8 -23l69 -69l-68 -68q-4 -4 -6.5 -9.5t-2.5 -9.5v-4q0 -6 2 -11t5 -8l2 -3q4 -4 9 -5.5
t8 -1.5h3q7 0 12.5 2t7.5 4l2 2l69 69l69 -69q7 -8 23 -8q11 -1 20 7q9 10 9 22q0 15 -10 23l-68 68v0zM989 94v420q-1 33 -13.5 57.5t-30 36.5t-34.5 18.5t-29 7.5l-11 1h-539q-7 0 -13 -2t-9 -4l-2 -2l-272 -300q-3 -4 -5.5 -9.5t-2.5 -8.5v-3q0 -7 2.5 -13.5t4.5 -9.5
l2 -2l268 -297q5 -5 10.5 -7.5t9.5 -2.5h3h543q34 2 58.5 16t35.5 29t17.5 35.5t6.5 27v12.5v0zM953 82q0 -3 -0.5 -7t-4 -15t-9.5 -19t-18.5 -15t-29.5 -7h-561l-257 286l260 286h558q3 0 7 -1t15 -5t19 -10.5t14.5 -19.5t6.5 -30v-443v0z" />
    <glyph glyph-name="pengyouquan" unicode="&#xe634;" 
d="M633 580v0v0v0zM512 756q-37 0 -51 -4q-60 -5 -121 -29q315 -311 322 -322v329q-22 8 -29 8q-61 18 -121 18v0zM633 580v0v0v0v0zM801 412v0v0v0zM841 621q-26 25 -40 36q-52 41 -106 62q3 -442 0 -457l234 234q-2 4 -7.5 13t-7.5 13q-26 51 -73 99v0zM801 412v0v0v0v0z
M804 167v0v0v0zM943 460q-310 -315 -321 -322h332q8 22 8 29q14 54 14 121q0 37 -3 51q-7 75 -30 121v0zM804 167v0v0v0v0zM633 -4v0v0v0zM483 102l234 -234q22 11 25 14q50 28 95 73q26 26 37 41q40 52 62 106v0v0v0v0v0v0v0v0v0v0v0h-1v0v0v0v0v0h-1v0v0v0v0h-1v0v0v0h-1
v0v0h-1v0v0h-1v0v0h-1v0v0h-1v0h-1v0v0h-1v0h-1v0h-1v0h-1v0h-1v0h-1v0h-1v0h-1v0h-1h-1v0h-1v0h-1h-1v0h-1v0h-1h-1v0h-1h-1v0h-1h-1v0h-1h-1h-1v0h-1h-1h-1v0h-1h-1h-1v0h-1h-1h-1v0h-1h-1h-1h-1h-1v0h-1h-1h-1h-1h-1v0h-1h-1h-1h-1h-1h-1h-1h-1h-1v0h-1h-1h-1h-1h-1h-1
h-1h-1h-1h-1h-1h-1h-1h-1h-1h-1h-1h-1h-1h-1h-1h-1h-1h-1h-1h-1h-1h-1h-1h-1h-1h-2h-1h-1h-1h-1h-1h-1h-1h-1h-1h-2h-1h-1h-1h-1h-1h-1h-1h-2h-1h-1h-1h-1h-1h-2h-1h-1h-1h-1h-2h-1h-1h-1h-1h-2h-1h-1h-1h-1h-2h-1h-1h-1h-2h-1h-1h-1h-2h-1h-1h-2h-1h-1h-1h-2h-1h-1h-2h-1
h-1h-1h-2h-1h-1h-2h-1h-1h-2h-1h-1h-2h-1h-1h-2h-1h-1h-2h-1h-2h-1h-1h-2h-1h-1h-2h-1h-2h-1h-1h-2h-1h-2h-1h-1h-2h-1h-2h-1h-2h-1h-1h-2h-1h-2h-1h-2h-1h-2h-1h-1h-2h-1h-2h-1h-2h-1h-2h-1h-2h-1h-2h-1h-2h-1h-2h-1h-2h-1h-2h-1h-2h-1h-2h-1h-2h-1h-2h-1h-2h-2h-1h-2h-1
h-2h-1h-2h-1h-2h-2h-1h-2h-1h-2h-1h-2h-2h-1h-2h-1h-2h-2h-1h-2h-1h-2h-2h-1h-2h-1h-2h-2h-1h-2h-1h-2h-2h-1h-2h-2h-1h-2h-2h-1h-2h-1h-2h-2h-1h-2h-2h-1h-2h-2h-1h-2h-2h-1h-2h-2h-1h-2h-2h-1h-2h-2h-1h-2h-2h-1h-2h-2h-2h-1h-2h-2h-1h-2h-2h-1h-2h-2h-1h-2h-2h-2h-1h-2
h-2h-1h-2h-2h-1h-2h-2h-1h-2h-2h-1h-2h-2h-1h-2h-8v0zM633 -4v0v0v0v0zM391 -4v0v0v0zM362 178v-332q22 -8 29 -8q54 -14 121 -14q37 0 51 3q60 5 121 30q0 -2 -79 75.5t-159.5 158.5t-83.5 87v0zM391 -4v0v0v0v0zM223 167v0v0v0zM329 314l-234 -234q2 -4 7.5 -13t7.5 -13
q27 -49 73 -95q26 -26 40 -37q52 -40 106 -62q0 -1 0 23.5t-0.5 63t-0.5 87v96.5v88.5v66.5t1 29v0zM223 167v0v0v0v0zM223 409v0v0v0zM62 409q-14 -54 -14 -121q0 -37 3 -51q5 -60 30 -121q310 315 321 322h-332q-2 -6 -4 -15t-4 -14v0v0zM223 409v0v0v0v0zM391 577v0v0v0z
M278 690q-49 -27 -95 -73q-15 -11 -37 -40q-40 -52 -62 -106q443 3 457 0l-234 234q-22 -8 -29 -15v0zM391 577v0v0v0v0zM391 577z" />
    <glyph glyph-name="jiahaoyou" unicode="&#xe60e;" horiz-adv-x="1171" 
d="M0 -103q0 107 51.5 198.5t139.5 147.5q97 -73 219 -73t219 73q87 -55 138.5 -147t51.5 -199v-109h-819v109zM951 300h-146v-73h146v-146h73v146h146v73h-146v146h-73v-146zM409.5 266q113.5 0 193.5 80t80 193t-80 193t-193.5 80t-193 -80t-79.5 -193t79.5 -193t193 -80z
" />
    <glyph glyph-name="iconfontwohover" unicode="&#xe60d;" 
d="M928 -137h-830q-14 0 -22.5 8.5t-11.5 20.5v2v99q0 17 15 26q195 116 260 159q39 27 45 70q-40 39 -62.5 97.5t-22.5 124.5q0 113 61 194q30 39 69 61q41 23 86 23t85 -23q39 -22 69 -61q61 -81 61 -194q0 -66 -22.5 -124.5t-62.5 -97.5q6 -43 45 -70q64 -44 258 -159
q14 -9 14 -26v-99v-2q-3 -12 -11.5 -20.5t-22.5 -8.5v0zM103 -98h820v86q-192 115 -255 158q-59 40 -63 109v9l7 6q37 34 58 86.5t21 113.5q0 100 -53 171q-52 68 -123.5 68t-123.5 -68q-53 -71 -53 -171q0 -61 21 -114t59 -86l7 -6l-1 -10q-4 -68 -63 -108
q-64 -43 -258 -158v-86v0z" />
    <glyph glyph-name="my" unicode="&#xe607;" 
d="M967 38v-109h-910v109l303 194v76q-28 0 -51.5 56.5t-23.5 95.5v151q0 94 66.5 161t160.5 67t160.5 -67t66.5 -161v-151q0 -39 -23.5 -95.5t-51.5 -56.5v-76z" />
    <glyph glyph-name="saoyisao" unicode="&#xe68a;" 
d="M76 588q-1 3 -1.5 8t1.5 20.5t7 29.5t18.5 31t33 30t53 22t76 9.5t78.5 -9t59 -24.5t41.5 -35.5t28 -37.5t16 -36t7.5 -25.5t2 -10.5v0h176q2 0 5 -1t10 -5t12 -10t9.5 -17t3.5 -25q0 -22 -8.5 -34t-17.5 -13l-8 -1h-413q-2 0 -5.5 -0.5t-12 -3t-15.5 -8t-12.5 -17.5
t-5.5 -28q-1 -12 -0.5 -26t0 -28t-2 -27t-5.5 -25t-10 -20.5t-16.5 -13.5t-25.5 -5q-13 0 -22.5 6t-14.5 14t-7.5 17.5t-3 13.5t-0.5 6zM947 15q0 -3 0.5 -8.5t-1.5 -21t-7 -29.5t-18.5 -31t-32.5 -29.5t-52.5 -21.5t-76.5 -10t-79 8.5t-59 25t-41.5 35t-28 38t-15.5 36
t-7.5 26t-1.5 9.5h-177q-2 1 -4.5 1.5t-10 5t-12.5 10t-9.5 16.5t-3.5 25q0 22 9 34.5t17 13.5l8 1h413h5.5t12 3t15.5 8t12.5 17t5.5 28q1 13 0.5 26.5t0.5 27.5t2 27.5t5 25t10 20t17 13.5t25 5q21 0 33 -14t14 -28l1 -14z" />
    <glyph glyph-name="faxian" unicode="&#xe608;" 
d="M830 702q-65 65 -149 98.5t-169 33.5t-169 -33.5t-149 -98.5t-98.5 -149t-33.5 -169t33.5 -169t98.5 -149q86 -87 202 -117.5t232 0t202 117.5q65 65 98.5 149t33.5 169t-33.5 169t-98.5 149zM224 96q-58 59 -88.5 135t-30.5 153t30.5 153t89 134.5t134.5 89t153 30.5
t153 -30.5t135 -88.5q78 -78 105.5 -183t0 -210t-105.5 -183t-183 -105.5t-210 0t-183 105.5zM446 454l-164 -304l298 170l170 298zM516 355q-12 0 -20.5 8.5t-8.5 20.5t8.5 20.5t20.5 8.5t21 -8.5t9 -20.5t-9 -20.5t-21 -8.5z" />
    <glyph glyph-name="faxian1" unicode="&#xe670;" 
d="M512 834q-186 0 -318 -132t-132 -318t132 -318t318 -132t318 132t132 318t-132 318t-318 132zM640 384q0 -51 -35 -87.5t-85 -39.5l-155 -133l-20 11l51 195q-12 27 -12 54q0 51 35 87.5t85 39.5l155 133l20 -11l-51 -195q12 -27 12 -54zM454 384v0q0 -24 17 -41t41 -17
t41 17t17 41v0v0q0 24 -17 41t-41 17t-41 -17t-17 -41v0z" />
    <glyph glyph-name="hongbao" unicode="&#xe629;" 
d="M842 600v128q0 16 -11.5 27.5t-27.5 11.5h-587q-16 0 -27.5 -11.5t-11.5 -27.5v-128q8 -7 23.5 -19.5t71.5 -45t121 -58.5q-4 -1 -12 -2t-32 -2t-48.5 2t-58.5 14t-65 30v-491q0 -10 6.5 -16.5t15.5 -6.5h621q9 0 15.5 6.5t6.5 16.5v491q-31 -18 -64.5 -29t-59.5 -13.5
t-47.5 -2.5t-33.5 2l-11 1q69 26 123 57t73 49zM510 490q46 0 79 -32.5t33 -79t-33 -79.5t-79.5 -33t-79.5 33t-33 79.5t33 79t80 32.5v0z" />
    <glyph glyph-name="qianbao" unicode="&#xe609;" horiz-adv-x="1121" 
d="M965 882h-809q-65 0 -110.5 -45.5t-45.5 -109.5v-685q0 -65 45.5 -110.5t110.5 -45.5h809q65 0 110.5 45.5t45.5 110.5v685q0 64 -45.5 109.5t-110.5 45.5zM1027 275q0 -26 -18 -44t-44 -18h-156q-58 0 -99 41t-41 99t41 99t99 41h156q26 0 44 -18t18 -44v-156zM811 353z
M765 353q0 19 13.5 33t33 14t33 -14t13.5 -33t-13.5 -33t-33 -14t-33 14t-13.5 33z" />
    <glyph glyph-name="iconfont" unicode="&#xe655;" 
d="M512 896l-399 -238l402 -240l398 238zM75 111l400 -239v480l-400 239v-480zM549 349v-477l400 239v477z" />
    <glyph glyph-name="chongzhi" unicode="&#xe62e;" 
d="M275 314v-58h211v-192h58v192h211v58h-217v108h211v58h-167l122 122l-38 38l-154 -147l-154 153l-38 -44l122 -122h-167v-58h211v-115zM512 832q120 0 223 -59.5t164 -163t61 -225.5q0 -187 -130.5 -317.5t-317.5 -130.5t-317.5 130.5t-130.5 317.5t130.5 317.5
t317.5 130.5zM512 896q-138 0 -256 -69t-187 -187t-69 -256t69 -256t187 -187t256 -69t256 69t187 187t69 256t-69 256t-187 187t-256 69v0z" />
    <glyph glyph-name="tongxunlu" unicode="&#xe69c;" horiz-adv-x="1025" 
d="M154 18v0q-38 0 -63 19q-29 22 -30 58l-1 4q-1 28 4 43q14 47 62 68q47 20 138 60l5 2q6 2 18 7q13 5 18 7q8 4 9 5q1 0 1 14q-1 7 -6 15l-8 13q-26 42 -38 63q-20 35 -29 75q-7 30 -4 68q5 45 22 84q37 82 107 114q92 43 179 -14q46 -29 74 -84q33 -63 31 -134
q-1 -36 -22 -81q-12 -27 -40 -70q-3 -4 -8 -11q-11 -17 -16 -25q-8 -15 -5 -28q10 -8 32 -16.5t60 -22.5q66 -26 99 -38q55 -22 68 -78q6 -27 0 -54q-11 -49 -66 -61q-11 -2 -27 -2h-177h-258h-129zM437 705q-28 0 -56 -13q-53 -25 -82 -91q-14 -32 -18 -69q-2 -30 3 -53
q8 -33 23 -62q12 -21 37 -61l7 -12q11 -18 12 -36q0 -24 -7 -37t-27 -22q-7 -3 -21 -8q-11 -5 -15 -7l-5 -2q-90 -39 -131 -58q-29 -13 -37 -40q-2 -8 -1 -28v-4q0 -15 12 -25q13 -9 34 -9v-22v22h124h248h170q10 0 17 1q25 6 30 27q4 17 0 35q-7 32 -40 45q-32 13 -94 37
q-39 15 -58 22q-29 12 -43 24q-11 10 -14 23q-6 29 9 57q5 10 18 28q5 8 7 11q25 39 35 63q17 36 17 63q2 58 -24 111q-22 43 -57 66q-36 24 -73 24zM836 509h97q7 0 13 -1q17 -5 16 -24q0 -19 -19 -23q-5 -1 -12 -1h-192q-9 0 -15 2q-17 6 -16 25q1 18 19 21q5 1 12 1h97z
M856 347h-75t-19 4q-15 6 -11 26q3 16 21 18q5 1 10 1h151q8 0 14 -2q16 -4 15.5 -22.5t-16.5 -22.5q-6 -2 -14 -2h-76zM892 240h-61q-14 0 -22 7q-11 10 -6 26q4 13 21 16h9q72 1 99 0q9 0 16 -2q14 -5 14 -22t-14 -22q-7 -2 -16 -3h-40z" />
    <glyph glyph-name="xiangce-copy" unicode="&#xe602;" 
d="M882 745h-741q-27 0 -46.5 -19t-19.5 -46v-591q0 -27 19.5 -46t46.5 -19h741q27 0 46.5 19t19.5 46v591q0 27 -19.5 46t-46.5 19zM903 238l-224 195l-123 -127l56 -83l-258 225l-234 -198v407q0 18 12.5 31t30.5 13h697q18 0 30.5 -13t12.5 -31v-419z" />
    <glyph glyph-name="yaoyiyao" unicode="&#xe6aa;" 
d="M738 667l-6 -2l-6 -2l-6 -2l-5 -2l-6 -2l-6 -2l-4 -2l-2 -2l-6 -2l-2 -2l-2 -2l-4 -4l-2 -3l-2 -4l-2 -2l-2 -4l-2 -6l-2 -4v-20l2 -7l2 -6l2 -2l2 -4h4v-4l4 -4l2 -2l2 -2l6 -2l2 -2l6 -2h25l6 2l4 2l6 2l6 2l4 2l6 2l6 2l7 2l4 2l6 2l6 2l4 2l6 2l6 2l4 2l12 5l4 2l7 2
l2 2l4 2l4 4l2 2l2 2l2 2l2 4l2 2l4 12v21l-2 8l-2 4l-2 4l-4 4l-2 4l-2 2l-2 2l-6 2l-2 2l-5 2l-4 3l-10 2h-2l-16 -2l-6 -3l-4 -2l-6 -2l-7 -2l-4 -2l-6 -2l-6 -2l-4 -2l-6 -2l-6 -2zM895 424l-6 -2l-6 -2l-4 -2l-7 -2l-6 -2l-4 -2l-6 -2l-6 -2l-4 -3l-6 -2l-6 -2l-4 -2
l-13 -4l-6 -2l-4 -2l-6 -2l-6 -2l-4 -2l-2 -2l-4 -4l-2 -2l-4 -4l-2 -2l-2 -4l-2 -2l-2 -7l-3 -8v-16l3 -6l2 -6l2 -4l2 -2l2 -2l8 -9l2 -2l6 -2l2 -2l6 -2l10 -2h11l6 2l4 2l6 2l6 2l4 2l6 2l6 2l4 2l6 3l6 2l5 2l6 2l6 2l4 2l12 4l6 2l4 2l6 2l6 2l5 4l4 2l2 2l2 4l4 4
l2 4l2 4l2 5v26l-2 4l-2 6l-2 4l-8 9l-4 4l-4 2l-5 2l-4 2l-8 2h-18zM848 557l-6 -2l-6 -2l-4 -2l-6 -2l-7 -2l-4 -3l-6 -2l-6 -2l-4 -2l-6 -2l-6 -2l-6 -2l-4 -2l-6 -2l-7 -2l-4 -2l-6 -2l-6 -2l-4 -2l-2 -2l-4 -2l-2 -2l-4 -4l-4 -4l-2 -4l-2 -3l-2 -4l-2 -8v-20l2 -6
l2 -4l2 -2l2 -5l2 -2l2 -4l2 -2l2 -2l4 -2l2 -2l4 -2l4 -2l6 -2h21l6 2l4 2l6 2l6 2l4 2l6 2l6 2l4 2l7 2l6 2l6 3l4 2l6 2l6 2l4 2l6 2l6 2l4 2l7 2l4 2l4 2v4h4l2 2l2 2l2 4l2 2l2 4l4 8v25l-2 6l-2 4l-2 4l-2 4l-2 2l-2 2l-4 5l-4 2l-2 2l-6 2l-3 2l-10 2h-10zM1005 258
l-2 6l-2 5l-2 4l-2 4l-2 2l-4 4l-4 2l-2 2l-5 2l-4 2l-8 2h-22l-4 -2l-6 -2l-6 -2l-5 -2l-6 -2l-6 -2l-4 -2l-6 -2l-6 -2l-6 -2l-4 -2l-6 -2l-6 -3l-5 -2l-6 -2l-6 -2l-4 -2l-6 -2l-6 -2l-2 -2l-2 -2l-4 -2l-2 -2l-2 -2l-2 -4l-4 -4l-2 -6l-2 -4l-2 -9v-16l2 -4l2 -6l2 -4
l4 -4l2 -4l2 -2l4 -2l2 -2l2 -3l2 -2l6 -2l6 -2h21l6 2l6 2l6 2l4 3l6 2l6 2l4 2l12 4l5 2l6 2l6 2l4 2l6 2l6 2l6 2l4 2l6 2l4 2l7 2l2 2l2 2l2 2l4 4l2 2l2 5l2 2l2 4l2 6l2 8v6zM181 673l2 -6l2 -6l3 -4l2 -6l2 -6l2 -4l2 -7l2 -6l2 -4l2 -6l2 -6l2 -6l2 -4l2 -6l2 -7
l2 -4l2 -6l2 -6l2 -4l2 -6l2 -4h2l4 2l6 2l7 2l4 2l6 2l12 4l2 2l2 8l2 9l2 2l2 2l2 2l2 2l4 2l7 2l4 2l6 2l6 2l4 2l6 2l6 2l4 2l6 2l6 2l4 2l7 2l12 4l4 2l6 2l6 2l4 3l6 2l6 2l4 2l7 2l6 2l4 2l6 2l12 4l4 2l12 4l5 2l12 4l4 2l6 2l6 2l4 2l6 2l6 2l4 2l7 2l6 3l6 2l4 2
l6 2l6 2l4 2l6 2l6 2l4 2l7 2l6 2l4 2l12 4l4 2l6 2l6 2l6 2l4 2l7 2l6 2l4 2l6 2l6 2l4 3l6 2l6 2h17l2 -2l4 -2l4 -5l2 -4l2 -4l2 -6l2 -6l2 -4l4 -12l2 -4l2 -6l2 -3h6l6 3l4 2l7 2l6 2l4 2l6 2l4 2v4l-2 6l-2 6l-2 4l-4 12l-2 5l-4 12l-2 4l-2 6l-2 6l-2 4l-4 12l-3 7
l-2 4l-2 6l-2 6l-2 4l-4 12l-2 4l-2 7l-2 6l-2 4l-4 12l-2 4l-2 6l-2 6l-2 4l-2 3l-2 4l-2 2l-2 2l-4 2l-4 4l-2 2l-7 2l-6 2l-10 2h-2l-12 -2l-6 -2l-4 -2l-7 -2l-6 -2l-4 -2l-6 -2l-6 -2l-6 -2l-4 -2l-12 -5l-4 -2l-6 -2l-7 -2l-4 -2l-6 -2l-6 -2l-4 -2l-6 -2l-6 -2l-4 -2
l-6 -2l-7 -2l-6 -2l-4 -2l-6 -2l-6 -2l-4 -2l-12 -4l-4 -2l-6 -2l-7 -2l-4 -3l-6 -2l-6 -2l-4 -2l-6 -2l-6 -2l-6 -2l-4 -2l-7 -2l-6 -2l-4 -2l-6 -2l-6 -2l-4 -2l-12 -4l-4 -2l-6 -2l-7 -2l-4 -2l-6 -2l-6 -2l-6 -2l-4 -3l-6 -2l-6 -2l-4 -2l-6 -2l-7 -2l-4 -2l-6 -2l-6 -2
l-4 -2l-6 -2l-6 -2l-6 -2l-4 -2l-6 -2l-7 -2l-4 -2l-6 -2l-6 -2l-4 -2l-6 -2l-2 -2l-4 -3l-2 -2l-2 -2l-4 -2l-2 -2l-2 -4l-3 -2l-2 -4l-2 -2l-2 -4v-4l-2 -4v-12l2 -11zM375 720l2 6l2 4l6 2l4 3l6 2l7 2l4 2l6 2l6 2l4 2l6 2l6 2l6 2l4 2l13 4l4 2l6 2l6 2l4 2l6 2l6 2
l4 2h10l7 -2l2 -4l2 -2v-16l-2 -2l-2 -2l-5 -2l-4 -2l-6 -2l-6 -2l-4 -2l-6 -3l-6 -2l-4 -2l-6 -2l-6 -2l-7 -2l-4 -2l-6 -2l-6 -2l-4 -2l-6 -2l-6 -2l-4 -2l-12 -4l-5 -2h-10l-6 2l-2 2l-2 2l-2 4v8v0zM970 99l-2 4l-4 12l-2 4l-2 6l-2 7l-2 4l-4 12l-2 4l-2 6l-2 2h-6
l-6 -2l-4 -2l-7 -2l-12 -4l-4 -2l-6 -2l-6 -2l-4 -2l-6 -2l-10 -2q-56 0 -76 41l-2 6l-2 4l-2 4h-4l-4 -2l-6 -2l-6 -2l-6 -2l-5 -2l-12 -4l-4 -2l-6 -2l-6 -3l-4 -2l-6 -2l-6 -2l-4 -2l-7 -2l-6 -2l-4 -2l-6 -2l-6 -2l-6 -2l-4 -2l-6 -2l-6 -2l-4 -2l-7 -2l-6 -2l-4 -2
l-6 -2l-6 -2l-4 -2l-12 -4l-4 -2l-6 -3l-6 -2l-7 -2l-4 -2l-6 -2l-6 -2l-4 -2l-6 -2l-6 -2l-4 -2l-6 -2l-6 -2l-5 -2l-6 -2l-6 -2l-4 -2l-6 -2l-6 -2l-7 -2l-4 -2l-6 -2l-6 -3l-4 -2l-6 -2h-10l-6 2l-4 2l-2 3l-5 2l-2 6l-2 6l-2 4l-2 6l-2 6l-2 4l-2 6l-2 6l-2 7l-2 4l-2 6
l-2 6l-2 4l-4 12l-2 4l-2 7l-2 6l-2 4l-2 6l-2 6l-2 4l-2 6l-2 6l-3 4l-2 6l-2 7l-2 6l-2 4l-2 6l-2 6l-2 4l-2 6l-2 6l-2 5l-2 6l-2 6l-2 4l-4 12l-2 4l-2 6l-2 6l-2 5l-2 6l-2 6l-2 4l-2 6l-5 12l-2 4h-6l-6 -2l-4 -2l-12 -4l-4 -2l-6 -2l-2 -2v-4l2 -6l2 -4l2 -6l2 -7
l2 -4l2 -6l2 -6l2 -4l2 -6l2 -6l2 -4l4 -13l2 -6l2 -4l2 -6l2 -6l2 -4l2 -6l2 -6l3 -4l4 -13l2 -4l2 -6l2 -6l2 -6l2 -4l2 -6l2 -6l2 -7l2 -6l2 -4v-4l2 -2l2 -8l2 -6l2 -4l2 -6l4 -13l2 -4l2 -6l2 -4l2 -8l2 -4l3 -6l2 -6l2 -5l2 -6l2 -6l2 -4l4 -12l2 -4l2 -6l2 -6l2 -5
l2 -6l2 -6l2 -6l2 -4l4 -12l2 -4l2 -7l2 -6l2 -4l2 -6l2 -6l2 -4l3 -6l2 -6l2 -4l2 -7l2 -6l2 -4l4 -12l2 -6l2 -4l2 -6l2 -2l2 -4h4v-5l2 -2l2 -2l2 -2l8 -4l4 -2l6 -2h19l6 2l4 2l12 4l4 2l6 2l7 2l4 2l6 2l6 2l4 2l6 3l6 2l4 2l6 2l6 2l6 2l5 2l12 4l4 2l6 2l6 2l4 2l6 2
l6 2l4 2l7 2l6 2l4 2l6 2l6 2l6 2l4 2l6 2l6 3l4 2l7 2l6 2l4 2l6 2l6 2l4 2l12 4l4 2l6 2l7 2l6 2l4 2l6 2l6 2l4 2l6 2l6 2l4 2l6 2l6 2l5 2l12 5l4 2l6 2l6 2l6 2l4 2l6 2l6 2l5 2l6 2l6 2l4 2l6 2l6 2l4 2l6 2l6 2l9 4l4 2l2 2l2 2l4 5l2 4l2 2l2 2l2 6l2 8v20l-2 7z
M702 -3q-23 0 -39.5 16.5t-16.5 39.5q0 15 8 28v2l1 1l2 2l1 3l4 4h1q16 16 39 16t39.5 -16.5t16.5 -39.5t-16.5 -39.5t-39.5 -16.5zM424 -44l-2 6l-2 4l-2 6l-2 6l-2 4l-4 13l-2 4l-2 6l-2 6l-2 4l-3 6l-2 6l-2 4l-2 7l-4 12l-2 4l-2 6l-2 6l-2 4l-2 6l-2 6l-2 5l-2 6l-2 6
l-2 4l-2 6l-2 6l-2 4l-4 13l-2 4l-2 6l-2 6l-2 4l-2 6l-2 6l-3 6l-2 4l-4 13l-2 4l-2 6l-2 6l-2 4l-2 6l-2 6l-2 5l-2 6l-2 6l-2 4l-2 6l-2 6l-2 6l-2 4l-2 6l-2 7l-2 4l-2 6l-2 6l-2 4l-2 6l-3 6l-2 4l-2 6l-2 7l-2 6l-2 4l-2 6l-2 6l-2 4v6l2 6l2 2l2 5l2 2l4 2l4 2l5 2
l6 2l6 2l4 2l6 2l6 2l4 2l6 2l6 2l6 2l5 2l6 2l6 2l4 2l6 2l6 2l4 2l6 2l6 2l4 2l7 3l6 2l4 2l6 2l6 2l6 2l4 2l12 4l4 2l7 2l6 2l4 2l6 2l6 2l4 2l6 2l2 2l4 2l2 2l4 2l2 2l5 4l2 3l2 2l4 4l2 2l2 4l2 2l2 4l2 6l2 2l2 6q7 22 3.5 43t-14.5 35q-24 33 -83 33h-4
q-5 -2 -14.5 -5.5t-13.5 -5.5l-5 -2l-6 -2l-6 -2l-4 -2l-6 -2l-6 -2l-4 -2l-12 -4l-6 -2l-5 -2l-6 -2l-6 -2l-4 -2l-6 -2l-6 -2l-4 -2l-6 -2l-6 -2l-4 -3l-7 -2l-12 -4l-4 -2l-6 -2l-6 -2l-4 -2l-6 -2l-6 -2l-4 -2l-7 -2l-6 -2l-4 -2l-6 -2l-6 -2l-4 -2l-6 -2l-6 -2l-2 -2
l-4 -2l-6 -2l-3 -2l-4 -2l-4 -3l-4 -2l-2 -2l-4 -2l-4 -2l-4 -2l-2 -2l-4 -2l-2 -2l-2 -2l-4 -2l-4 -2l-2 -2l-2 -2l-5 -2l-2 -2l-2 -2l-2 -2l-4 -2l-4 -4l-2 -2l-4 -2l-2 -2l-2 -2l-2 -2l-2 -2l-2 -2l-2 -3l-2 -2l-2 -2l-2 -2l-2 -2l-2 -2l-2 -2l-2 -2l-2 -4l-2 -2l-2 -2
l-3 -2l-2 -2l-2 -2l-2 -2l-2 -4l-2 -2l-2 -2l-2 -4l-2 -2l-2 -3l-2 -4l-2 -2l-2 -2l-2 -4l-2 -4l-2 -2l-2 -4l-2 -4l-2 -2l-2 -4l-2 -4l-2 -4l-2 -2l-2 -7l-2 -4l-2 -4l-3 -2l-2 -6l-2 -6l-2 -4l-2 -6l-2 -6l-2 -6l-2 -7l-2 -4v-4l-2 -6l-2 -8l-2 -12l-2 -13l-2 -26v-25
l2 -18v-6l2 -13l2 -10l2 -10l2 -4l2 -10l2 -6l2 -7l2 -4l2 -6l2 -6l2 -6l3 -4l2 -2l2 -6l2 -4l2 -4l2 -3l2 -6l2 -2l2 -4l2 -2l2 -4l2 -2l2 -6l2 -2l2 -2l2 -2l2 -4l2 -4h4v-6l2 -3l2 -2l2 -2l2 -2l3 -2l2 -2l2 -4l2 -2l2 -2l2 -2l2 -2l2 -2l2 -2l2 -2l2 -2l2 -2l2 -2l4 -2
l2 -2l2 -2l2 -2l2 -2l2 -2l2 -3l2 -2l4 -2l3 -2l4 -2l2 -2l2 -2l4 -2l4 -2l2 -2l4 -2l4 -2l2 -2l4 -2l2 -2l4 -2l6 -2l2 -2l7 -2l2 -2l6 -2l4 -2l4 -2l6 -2l6 -3l6 -2l6 -2l6 -2l9 -2l8 -2l6 -2h4l10 -2l16 -2h9l18 -2h2l31 2l18 2h4l8 2l10 2h4l4 2l11 2l6 2h4l4 2l6 2l6 3
l4 2l2 2v6l-2 6z" />
    <glyph glyph-name="shezhinet" unicode="&#xe630;" 
d="M960 480h-77q-13 52 -41 99l55 54q18 19 18 45.5t-18 44.5l-46 46q-18 18 -44.5 18t-45.5 -18l-54 -55q-47 28 -99 41v77q0 27 -18.5 45.5t-45.5 18.5h-64q-27 0 -45.5 -18.5t-18.5 -45.5v-77q-52 -13 -99 -41l-54 55q-19 18 -45.5 18t-44.5 -18l-46 -46
q-18 -18 -18 -44.5t18 -45.5l54 -54q-27 -47 -40 -99h-77q-27 0 -45.5 -18.5t-18.5 -45.5v-64q0 -27 18.5 -45.5t45.5 -18.5h77q13 -52 40 -99l-54 -54q-18 -19 -18 -45.5t18 -44.5l46 -46q18 -18 44.5 -18t45.5 18l54 54q47 -27 99 -40v-77q0 -27 18.5 -45.5t45.5 -18.5h64
q27 0 45.5 18.5t18.5 45.5v77q52 13 99 40l54 -54q19 -18 45.5 -18t44.5 18l46 46q18 18 18 44.5t-18 45.5l-54 54q27 47 40 99h77q27 0 45.5 19t18.5 45v64q0 27 -18.5 45.5t-45.5 18.5zM512 128q-106 0 -181 75t-75 181t75 181t181 75t181 -75t75 -181t-75 -181t-181 -75z
" />
    <glyph glyph-name="leidaicon" unicode="&#xe606;" 
d="M509 508q-60 0 -103 -42.5t-43 -103t43 -103t103 -42.5t103 42.5t43 103t-43 103t-103 42.5zM508.5 256q-44.5 0 -75.5 31t-31 75.5t31 76t75.5 31.5t76 -31.5t31.5 -76t-31.5 -75.5t-76 -31zM337 170q-80 79 -80 192q0 114 82 193l-30 30q-44 -43 -69 -101t-25 -122
t24.5 -121.5t68.5 -100.5zM713 140q44 43 68.5 100.5t24.5 121.5t-25 122t-69 101l-30 -30q82 -79 82 -193q0 -113 -80 -192zM227 67q-58 57 -90 133t-32 160q0 86 33.5 163.5t94.5 134.5l-30 29q-66 -63 -103 -147.5t-37 -179.5q0 -93 35.5 -176t99.5 -146zM820 38
q64 63 99.5 146t35.5 176q0 95 -37 179.5t-104 147.5l-29 -29q61 -57 94.5 -134.5t33.5 -163.5q0 -84 -32 -160t-90 -133z" />
    <glyph glyph-name="ai-video" unicode="&#xe66b;" 
d="M648 55q4 0 10 0.5t22 5.5t28.5 14t22.5 28t10 45v466q0 26 -9.5 45t-23.5 28t-27.5 14t-23.5 5l-9 1h-555q-4 0 -10 -0.5t-22 -5.5t-28.5 -14t-22.5 -28t-10 -45v-466q0 -19 5 -34.5t13.5 -24.5t18.5 -16t19.5 -10.5t18 -5t13.5 -2.5h5h555zM795 525v-290l229 -180v652z
" />
    <glyph glyph-name="sanjiao" unicode="&#xe724;" 
d="M710 391l-331 334q-10 11 -24 11t-24 -10.5t-10 -24t10 -23.5l307 -308l-307 -307q-10 -10 -10 -23.5t10 -24t24 -10.5t24 10l331 331q10 11 10 24q0 11 -10 21z" />
    <glyph glyph-name="dianping1193379easyiconnet" unicode="&#xe65d;" 
d="M351 850q-51 -13 -79.5 -54.5t-25 -91.5t40.5 -87q31 -32 73 -39t78 8t61 49.5t25 79.5q0 68 -54 110t-119 25zM684 829q-2 -1 -12.5 -4t-22.5 -6t-23 -6q-31 -8 -36.5 -10.5t-4.5 -7.5q14 -60 -4.5 -113t-57.5 -85.5t-90.5 -47.5t-101.5 -8t-93.5 41.5t-62.5 93.5
q-1 2 -1 4q-3 8 -8 8t-32 -8q-8 -2 -13 -3q-54 -15 -61 -17.5t-6 -7.5q6 -53 53 -107.5t115.5 -90t135.5 -37.5q32 -2 33 -4l-10 -5l-2 -1q-82 -30 -145.5 -104.5t-92 -171.5t-13.5 -189q4 -24 7 -26.5t19 1.5q29 7 70 18q50 12 56.5 15t4.5 11q-12 42 0.5 102.5t41.5 104.5
q37 55 92.5 87t114.5 34.5t115 -15t101.5 -62t67.5 -106.5q5 -13 7 -15q3 0 73 18t73 19q1 2 -8 26t-16 40q-53 114 -155 180t-229 70l-47 1l20 11q96 55 143.5 155t27.5 203q-3 16 -5.5 17.5t-17.5 -2.5v0z" />
    <glyph glyph-name="icon-up" unicode="&#xe615;" 
d="M871 223l-362 362l-361 -360z" />
    <glyph glyph-name="meituanwaimai" unicode="&#xe9ab;" 
d="M31 556l24 -8t55.5 -12t72.5 -5q24 2 121 25.5t155 20.5q92 -5 231 -34q80 -17 98 1q4 4 5.5 11t-4.5 13t-20 5q-2 0 -10.5 -0.5t-13 -0.5t-13 -0.5t-13.5 0t-12 1.5t-11 3.5t-8 5.5t-5 7.5t-1 10.5q3 25 47 29.5t84 -9.5q-9 19 -37 21h-2q-18 2 -25 3t-12.5 5.5
t-3.5 13.5q2 18 18 22t45 -11q6 -3 11 -6.5t8.5 -6t8 -7l6.5 -6.5t6 -7.5t5.5 -7.5t6.5 -8.5t6 -8.5q91 -21 147 -60q2 -2 4.5 -4t7.5 -9t7 -12.5t-2.5 -12.5t-16.5 -11q-16 -6 -52.5 -6.5t-84.5 -19.5q-57 -22 -113.5 -56.5t-71.5 -50.5q-13 -15 -15 -21t6 -16
q14 -14 -1 -29q-8 -9 -40.5 -29.5t-63.5 -30.5q-33 -10 -76 -19t-59 -10q4 0 10.5 -1t23 -6t30 -12t25.5 -21.5t15 -32.5q4 -31 1 -44.5t-9 -15.5l-5 -2q-5 5 -13.5 13t-34.5 29t-50.5 37.5t-57 30.5t-58.5 16q-67 4 -28 63q30 46 96 91q-34 -11 -63 -33q-2 1 -4 4
t-6.5 13.5t-7 22.5t-1 31t8.5 40q-4 2 -20 0t-50 3t-69.5 12.5t-78 28t-74.5 48.5q-5 4 -7 11.5t3 12t25 -1.5v0z" />
    <glyph glyph-name="youxi" unicode="&#xe60f;" 
d="M902 347h-200q-18 0 -24 -18q-13 -39 -42.5 -68.5t-68.5 -42.5q-18 -6 -18 -24v-200q0 -17 16 -23.5t28 5.5l327 327q12 12 5.5 28t-23.5 16zM567 550q39 -13 68.5 -42.5t42.5 -68.5q6 -18 24 -18h200q17 0 23.5 16t-5.5 28l-327 327q-12 12 -28 5.5t-16 -23.5v-200
q0 -18 18 -24zM457 218q-39 13 -68.5 42.5t-42.5 68.5q-6 18 -24 18h-200q-17 0 -23.5 -16t5.5 -28l327 -327q12 -12 28 -5.5t16 23.5v200q0 18 -18 24zM431 792l-327 -327q-12 -12 -5.5 -28t23.5 -16h200q18 0 24 18q13 39 42.5 68.5t68.5 42.5q18 6 18 24v200
q0 17 -16 23.5t-28 -5.5z" />
    <glyph glyph-name="qiaquan" unicode="&#xe61d;" 
d="M955 373v176h-891v-176q0 -12 10 -18q53 -35 53 -94.5t-53 -94.5q-10 -7 -10 -18v-174h891v174q0 11 -10 18q-54 35 -54 94.5t54 94.5v0q10 7 10 18zM254 38h-64v64h64v-64zM254 165h-64v64h64v-64zM254 293h-64v64h64v-64zM254 420h-64v64h64v-64zM572 803l-319 -191
h447z" />
    <glyph glyph-name="phonecontact" unicode="&#xe73c;" 
d="M223 165q0 7 -5.5 12.5t-12.5 5.5h-147q-7 0 -12.5 -5.5t-5.5 -13t5.5 -13t12.5 -5.5h147q7 0 12.5 5.5t5.5 13.5v0zM58 586h147q7 0 12.5 5.5t5.5 13t-5.5 13t-12.5 5.5h-147q-7 0 -12.5 -5.5t-5.5 -13t5.5 -13t12.5 -5.5v0zM937 864v0h-781q-18 0 -30.5 -12.5
t-12.5 -30.5v-146q0 -11 5.5 -17t13.5 -6h73q20 0 34.5 -14.5t14.5 -35.5t-14.5 -35.5t-34.5 -14.5h-73q-8 0 -13.5 -6.5t-5.5 -14.5v-293q0 -24 19 -24h73q20 0 34.5 -15t14.5 -35.5t-14.5 -35.5t-34.5 -15h-73q-19 0 -19 -24v-146q0 -18 12.5 -30.5t30.5 -12.5h781
q18 0 30.5 12.5t12.5 30.5v878q0 18 -13 30.5t-30 12.5zM855 164q-40 -39 -100 -39q-59 0 -129.5 36.5t-133 98.5t-99 132.5t-36.5 129.5t39 99q19 18 44 18h5h5q19 -4 51.5 -33t41.5 -59q9 -29 -13.5 -51t-30.5 -20q-17 4 -29 -7q-12 -12 -13 -31q-1 -26 20.5 -63t57 -72.5
t72.5 -57t62 -21.5q21 0 32 13q10 11 8 26q-1 8 22 31q16 16 35 16q31 0 65 -35t39 -59q3 -13 -1.5 -26.5t-8 -18t-5.5 -7.5z" />
    <glyph glyph-name="gouwu" unicode="&#xe665;" 
d="M860 832h-697q-41 0 -70 -29t-29 -71v-696q0 -41 29 -70t70 -29h697q41 0 70 29t29 70v696q0 42 -29 71t-70 29zM782 563q-17 -98 -93 -163.5t-177 -65.5t-177.5 65.5t-92.5 163.5q-29 13 -29 45q0 21 14.5 35.5t35.5 14.5t35.5 -14.5t14.5 -35.5q0 -26 -21 -41
q14 -78 76 -130.5t143.5 -52.5t143.5 52.5t77 130.5q-21 15 -21 41q0 21 14.5 35.5t35 14.5t35 -14.5t14.5 -35.5q0 -31 -28 -45z" />
    <glyph glyph-name="didichuhang" unicode="&#xe736;" 
d="M832 624v-157q-2 -134 -95 -227t-225 -93t-225 93t-95 227v157h640v192h-787q-20 -2 -32.5 -15.5t-12.5 -32.5v-310q0 -50 10 -103q11 -55 32 -93q19 -48 48 -86q38 -51 60 -74q7 -6 21.5 -19t20.5 -19q5 -5 16 -13t16 -13q31 -23 86 -48q48 -19 96 -28.5t102.5 -9.5
t102.5 9.5t96 29t87 47.5q25 20 31.5 26t21 19t20.5 19q40 40 61 74q29 38 48 86q6 16 32 93q10 48 10 103v166h-186z" />
    <glyph glyph-name="zan" unicode="&#xe663;" 
d="M959 564q-1 90 -60 154t-147 75q-69 8 -133.5 -23.5t-103.5 -89.5q-33 53 -92.5 82.5t-126.5 31.5q-95 2 -160 -64t-71 -164q-4 -49 12 -101.5t49 -104.5t61 -88t69 -83q73 -84 155 -150q1 -1 13 -10.5t15.5 -12t13.5 -10t16.5 -11t15.5 -7.5t17 -5l11 -4q8 2 11 4
q7 1 14 3.5t14 6.5t12.5 7t13 8.5t11.5 8.5t12.5 9.5t10.5 8.5q75 57 150 140q200 218 197 389zM882 518q-4 -40 -20.5 -81.5t-48 -84t-53 -68t-60.5 -67.5q-52 -57 -114 -108q-8 -6 -27 -18t-35 -20l-16 -9q-9 8 -15 11q-18 11 -44 32q-54 44 -117 111q-36 39 -59.5 66.5
t-53 67.5t-48 80t-26.5 81q-12 66 21 124t95 71q58 13 117 -21.5t111 -95.5q19 -22 39 -7q6 4 34 31q20 21 26 27q80 85 158 72q63 -11 102.5 -70t33.5 -124z" />
    <glyph glyph-name="pinglun1" unicode="&#xe69d;" 
d="M832 700h-640q-29 0 -49 -20t-20 -48v-449q0 -28 20 -48t49 -20h96l19 -128l235 128h290q29 0 49 20t20 48v449q0 28 -20 48t-49 20zM855 219q0 -24 -18 -40.5t-43 -16.5h-254l-196 -116l-16 116h-98q-25 0 -43 16.5t-18 40.5v379q0 23 18 40t43 17h564q25 0 43 -17
t18 -40v-379z" />
    <glyph glyph-name="xindepengyou" unicode="&#xe790;" 
d="M752.5 -29q-41.5 0 -79 16t-65 44t-43.5 65t-16 78.5t16 79t43.5 64.5t65 43t79 16t79 -16t64.5 -43t43 -64.5t16 -79t-16 -78.5t-43 -65t-64.5 -44t-79 -16zM853 207h-74v69q0 14 -9 24t-22.5 10t-21.5 -10t-8 -24v-69h-65q-14 0 -23.5 -9.5t-9.5 -23.5t9.5 -21t23.5 -7
h65v-70q0 -14 8 -24t21.5 -10t22.5 10t9 24v70h74v-2q14 0 23.5 8t9.5 22t-9.5 23.5t-23.5 9.5zM608 454q-4 -15 -8 -28q-4 -11 -10 -22.5t-13 -17.5q-9 -7 -12.5 -15t-5.5 -16l-6 -18t-10 -17q-23 -30 -34 -58t-15.5 -53.5t-2.5 -51t8 -49.5q4 -18 11.5 -37t23 -39.5
t39.5 -40t59 -36.5q-23 -5 -55 -9q-27 -3 -66 -5.5t-90 -2.5q-26 0 -60 2q-35 2 -70 5q-36 3 -72 7q-35 4 -64 8t-49.5 9t-25.5 9q-9 8 -14 44.5t3 94.5q5 33 26.5 50.5t50 27t60 18t54.5 23.5q19 12 29 22.5t14 21.5t4 23t-1 25q-2 21 -14.5 33t-26.5 24q-8 6 -13.5 18
t-9.5 23q-5 13 -8 28q-7 2 -13 6q-5 4 -11 12t-11 24q-5 15 -3.5 28t5.5 22q4 11 11 19q0 33 4 67q4 29 12.5 61.5t27.5 58.5q17 25 37.5 41t42.5 24.5t43.5 12t41.5 3.5q26 0 50 -6t44 -15.5t36 -22t26 -25.5q23 -29 33.5 -63.5t15.5 -65.5q4 -36 3 -71q6 -5 10 -12
q4 -6 6 -16t0 -25q-2 -19 -8 -30t-12 -17q-8 -7 -17 -10z" />
    <glyph glyph-name="Group" unicode="&#xe62a;" horiz-adv-x="1378" 
d="M459 375q8 -13 11 -25.5t3 -21.5t-6 -19t-9.5 -15.5t-15 -13.5t-15.5 -10.5t-16.5 -10t-13.5 -7.5q-14 -8 -41 -23q-92 -52 -122.5 -74.5t-30.5 -45.5v-52q0 -12 8.5 -21t21.5 -9h667q14 0 22.5 9t8.5 21v52q0 23 -31 45.5t-123 74.5q-26 15 -41 23q-1 0 -13.5 7.5
t-16.5 10t-15 10.5t-15 13.5t-10 15.5t-6 19t3 21.5t11 25.5q6 9 22.5 32t21.5 32t14 29t11.5 41.5t2.5 50.5q0 75 -49.5 135t-124.5 60q-82 0 -133.5 -59.5t-51.5 -135.5q0 -29 3 -50.5t12 -41.5t13.5 -29t21 -32t22.5 -32zM780 272q3 2 17.5 10.5t23.5 13.5l9 5t11.5 6.5
t10.5 7t10.5 9.5t6.5 11t4 13t-2 14.5t-8 17.5q-3 6 -14.5 21.5t-15 22t-9.5 20t-8 28.5t-2 35q0 52 35.5 93t91.5 41q51 0 85.5 -41.5t34.5 -92.5q0 -20 -2 -35t-8 -28.5t-9.5 -20t-15 -22t-15.5 -21.5q-5 -9 -7 -17.5t-2.5 -14.5t4 -13t7 -11t10.5 -9.5t10.5 -7t11 -6.5
t9.5 -5q10 -6 28 -17q63 -35 84 -50.5t21 -31.5v-35q0 -9 -5.5 -15t-15.5 -6h-204q-6 13 -16 23v1q-2 10 -24 24t-142 83z" />
    <glyph glyph-name="qipao1" unicode="&#xe603;" 
d="M509 811q-137 0 -253 -49t-183.5 -133t-67.5 -184q0 -94 55.5 -173t155.5 -128l-0.5 -1l-0.5 -1q0 -62 -50 -146v0q-2 -5 -2 -11q0 -11 8.5 -19t19.5 -8h4.5h3.5v0q65 10 135 53.5t93 71.5q26 -4 56 -4q4 0 12.5 0.5t13.5 0.5q137 0 253 48.5t183.5 133t67.5 184
t-67.5 183.5t-183.5 133t-253 49zM509 122h-15h-11q-26 0 -46 3l-36 5l-22 -27q-8 -9 -53 -35t-88 -46q20 51 21 115v2v42l-34 17q-84 42 -130 106.5t-46 140.5q0 83 64 158t170.5 120t225.5 45t226 -45t170.5 -120t63.5 -157.5t-63.5 -157.5t-170.5 -120.5t-226 -45.5z" />
    <glyph glyph-name="fujinderen" unicode="&#xe616;" 
d="M656 -33zM302 756zM164 756q0 -58 40.5 -99t97.5 -41t97.5 41t40.5 99t-40.5 99t-97.5 41t-97.5 -41t-40.5 -99zM722 756zM584 756v0q0 -33 20.5 -68.5t48.5 -52.5q32 -19 69 -19t69 19q29 17 49 52.5t20 68.5v0v1q0 33 -20 68t-49 52q-32 19 -69 19t-69 -18.5t-50.5 -51
t-18.5 -70.5zM908 137h-1l-129 228h1v60h197v110h-923v-110h197v-53l-133 -235h-1l-116 -205l94 -55l28 50v0l180 315l147 -260v0l1 -1l31 -54l31 -55l31 55l31 54l1 1h-1l148 260l180 -315v0l28 -50l94 55zM671 372l-159 -280l-155 273h1v60h313v-53v0z" />
    <glyph glyph-name="qq" unicode="&#xe61a;" 
d="M957 327q-9 29 -30 64.5t-42 57.5v9q0 19 -6.5 44t-15.5 42q0 95 -47 176t-128 127.5t-176 46.5t-176 -46.5t-128 -127.5t-47 -176q-9 -17 -15.5 -42t-6.5 -44v0v-8q-21 -22 -42 -58t-30 -65q-16 -53 -19 -103.5t13 -91t50 -52.5q12 -4 24 -4v0q9 0 18 2
q-14 -12 -23.5 -33.5t-9.5 -39.5q0 -57 60 -95t153 -38h9q35 0 79.5 13t74.5 32h32q29 -19 74 -32t80 -13h9q92 0 152.5 38t60.5 95q0 18 -9.5 40t-23.5 34q9 -2 18 -2h1q12 0 23 3q34 12 49.5 52.5t13 91.5t-18.5 103zM895 134q-2 -1 -3 -1t-3 1q-21 4 -34 22q-7 9 -19 9v0
h-3q-13 -1 -20 -13q-13 -26 -31 -49q-6 -7 -6 -15q0 -17 16 -24q57 -23 57 -58q0 -32 -46 -54.5t-111 -22.5h-11q-28 0 -65 11.5t-60 27.5q-8 6 -17 6v0h-53v0q-9 0 -16 -6q-24 -16 -60.5 -27.5t-65.5 -11.5h-11q-64 0 -110.5 22.5t-46.5 54.5q0 36 57 58q15 7 15 24
q0 9 -5 15q-18 23 -32 49q-6 12 -20 13h-2h-1q-11 0 -19 -9q-12 -18 -34 -23h-2.5h-3.5q-20 7 -23.5 59t15.5 118q9 26 29 58.5t40 52.5q7 7 7 17v4v8v8q0 34 19 63q3 7 3 14v1v6v9q0 122 86.5 208.5t208.5 86.5t208 -86.5t86 -208.5v-9v-5v-2q0 -7 4 -13q19 -29 19 -64
q1 -4 1 -8t-1 -8v-4q0 -11 7 -18q20 -19 40 -51.5t28 -58.5q18 -65 13.5 -117t-24.5 -59v0z" />
    <glyph glyph-name="yuyin" unicode="&#xe74b;" 
d="M640 845l-86 -81q40 -38 70 -80q30 -43 52 -91q44 -100 44 -209t-44 -209q-21 -47 -52 -91q-30 -42 -70 -80l86 -81q95 90 148 209t53 252t-53 252t-148 209zM458 672l-86 -81q43 -41 66 -93q24 -55 24 -114q0 -60 -24 -114q-23 -52 -66 -93l86 -81q59 56 92 130.5
t33 157.5t-33 157.5t-92 130.5zM154 384l121 -115q51 48 51 115t-51 115z" />
    <glyph glyph-name="pengyouquan1" unicode="&#xe65c;" 
d="M513 795q-23 0 -47 -3q-54 -6 -106 -27q276 -273 284 -283v291q-12 4 -25 8q-53 14 -106 14zM801 676q-16 16 -34 31q-44 35 -95 56q2 -389 0 -401l207 206q-6 12 -13 24q-27 47 -65 84zM892 536q-274 -276 -284 -284h292q4 12 8 25q14 53 14 106q0 23 -3 47
q-6 55 -27 106zM486 222l207 -207q11 6 23 13q47 27 85 65q15 15 30 34q35 44 56 95q1 -1 -100.5 -1h-190.5t-110 1zM380 286v-291q13 -5 25 -8q53 -14 106 -14q23 0 47 3q55 6 106 27l-15 15t-39.5 39t-54.5 53.5t-60 59.5t-55 55.5t-41.5 42zM351 408l-206 -206
q5 -11 12 -23q27 -47 65 -85q16 -16 35 -31q44 -35 94 -56v101t-0.5 190.5t0.5 109.5zM116 490q-14 -52 -14 -105q0 -23 3 -47q6 -55 27 -106q274 276 284 284h-292q-4 -12 -8 -26zM306 739q-47 -27 -85 -65q-15 -16 -30 -35q-35 -43 -57 -94h402l-207 206q-12 -6 -23 -12z
" />
    <glyph glyph-name="zhuanzhang" unicode="&#xe633;" 
d="M914 309l-296 -188q-10 -10 -25 -5.5t-15 18.5v85q0 9 -8.5 17t-18.5 8h-431q-21 10 -21 26v59q0 9 8.5 17t18.5 8h775q12 -5 17 -17.5t-4 -27.5zM106 445l297 188q10 10 25 5.5t15 -18.5v-91q0 -10 8.5 -18t18.5 -8h431q10 0 18.5 -8t8.5 -18v-51q0 -10 -8.5 -18
t-18.5 -8h-781q-15 5 -19.5 20t5.5 25z" />
    <glyph glyph-name="sou" unicode="&#xe604;" 
d="M873 77v0v0v0q10 -12 10 -26q0 -15 -11 -27q-11 -11 -27 -11v0q-7 0 -13 2q-9 3 -16 11v-1l-204 206q-74 -52 -165 -52q-9 0 -19 1q-18 1 -35 6q-56 3 -117 51q-41 24 -77 87q-29 49 -35 109l-1 -1q-2 16 -2 32q0 4 0 3q0 25 5 50q10 67 52 122q10 20 40 44.5t66 40.5
l-10 -3q10 7 41 18q43 16 92 16v0q20 0 38 -3q49 -6 94 -29q73 -39 113 -109l-2 7q11 -12 26 -54q20 -56 18 -113q-4 -95 -66 -171l206 -206h-1v0zM691 455v13q0 46 -18 88q-19 53 -61 91q-8 7 0 -1q-5 5 -10 9q-47 40 -108 52q-15 3 0 1q-24 3 -45 3q-15 0 -30 -2
q-2 0 -6 -1h-5q-66 -11 -116 -53q-19 -12 -39.5 -41t-32.5 -64q-1 3 -3 -3q-10 -24 -12 -69q-3 -62 23 -115q31 -69 97 -106q0 -3 12 -9.5t34 -13t44 -9.5q1 -2 11.5 -2.5t28 0t33.5 3.5q46 8 84 31q7 2 27 18.5t37 37.5l-1 -4q12 11 33 53q2 3 3 7l-14 -26q4 7 8 15v0
q25 48 26 104v-7z" />
    <glyph glyph-name="12" unicode="&#xe605;" 
d="M-4348 384q0 -118 46 -225.5t123.5 -185t185 -123.5t225 -46t225 46t185 123.5t123.5 185t46 225.5t-46 225.5t-123.5 185t-185 123.5t-225 46t-225 -46t-185 -123.5t-123.5 -185t-46 -225.5zM-1952 124l-194 194l-91 -31l-61 -17l-69 17l-55 26h-69l-43 -32l-64 -8
l-40 11l-61 26l-66 8v-217l296 -297q167 1 305.5 88.5t211.5 231.5zM347 304q32 0 55.5 9.5t36.5 21t36.5 21t55.5 9.5t57 -9.5t38.5 -21t38.5 -21t57 -9.5l-7 18l-54 162q-18 54 -65.5 85.5t-102.5 27.5l-71 211q14 8 20 23t1 30l-3 10q-6 17 -22.5 25t-33.5 2l-91 -30
q-17 -6 -25 -22.5t-2 -33.5l3 -9q5 -16 19 -24t30 -6l71 -210q-46 -32 -65 -85t0 -108l19 -57l4 -9v0zM722 -87q-25 0 -46.5 6t-32 11.5t-27.5 16.5q-15 10 -23.5 14.5t-25 9t-36.5 4.5t-36.5 -4.5t-25 -9t-23.5 -14.5q-17 -11 -27.5 -16.5t-32 -11.5t-46.5 -6t-46.5 6
t-32 11.5t-27.5 16.5q-15 10 -23.5 14.5t-25 9t-36.5 4.5q-8 0 -13.5 5.5t-5.5 13t5.5 13t13.5 5.5q25 0 46.5 -5.5t32 -11.5t27.5 -16q15 -10 23.5 -14.5t25 -9t36.5 -4.5t36.5 4.5t25 9t23.5 14.5q17 10 27.5 16t32 11.5t46.5 5.5t46.5 -5.5t32 -11.5t27.5 -16
q15 -10 23.5 -14.5t25 -9t36.5 -4.5t36.5 4.5t25 9t23.5 14.5q17 10 27.5 16t32 11.5t46.5 5.5q8 0 13.5 -5.5t5.5 -13t-5.5 -13t-13.5 -5.5q-20 0 -36.5 -4.5t-25 -9t-23.5 -14.5q-17 -11 -27.5 -16.5t-32 -11.5t-46.5 -6v0zM722 54q-25 0 -46.5 6t-32 11.5t-27.5 16.5
q-15 9 -23.5 13.5t-25 9t-36.5 4.5t-36.5 -4.5t-25 -9t-23.5 -13.5q-17 -11 -27.5 -16.5t-32 -11.5t-46.5 -6t-46.5 6t-32 11.5t-27.5 16.5q-15 9 -23.5 13.5t-25 9t-36.5 4.5q-8 0 -13.5 5.5t-5.5 13.5t5.5 13.5t13.5 5.5q25 0 46.5 -6t32 -11.5t27.5 -16.5q15 -9 23.5 -14
t25 -9t36.5 -4t36.5 4t25 9t23.5 14q17 11 27.5 16.5t32 11.5t46.5 6t46.5 -6t32 -11.5t27.5 -16.5q15 -9 23.5 -14t25 -9t36.5 -4t36.5 4t25 9t23.5 14q17 11 27.5 16.5t32 11.5t46.5 6q8 0 13.5 -5.5t5.5 -13.5t-5.5 -13.5t-13.5 -5.5q-20 0 -36.5 -4.5t-25 -9
t-23.5 -13.5q-17 -11 -27.5 -16.5t-32 -11.5t-46.5 -6v0zM722 195q-25 0 -46.5 5.5t-32 11t-27.5 16.5q-15 10 -23.5 14.5t-25 9t-36.5 4.5t-36.5 -4.5t-25 -9t-23.5 -14.5q-17 -11 -27.5 -16.5t-32 -11t-46.5 -5.5t-46.5 5.5t-32 11t-27.5 16.5q-15 10 -23.5 14.5t-25 9
t-36.5 4.5q-8 0 -13.5 5.5t-5.5 13t5.5 13t13.5 5.5q25 0 46.5 -5.5t32 -11.5t27.5 -16q15 -10 23.5 -14.5t25 -9t36.5 -4.5t36.5 4.5t25 9t23.5 14.5q17 10 27.5 16t32 11.5t46.5 5.5t46.5 -5.5t32 -11.5t27.5 -16q15 -10 23.5 -14.5t25 -9t36.5 -4.5t36.5 4.5t25 9
t23.5 14.5q17 10 27.5 16t32 11.5t46.5 5.5q8 0 13.5 -5.5t5.5 -13t-5.5 -13t-13.5 -5.5q-20 0 -36.5 -4.5t-25 -9t-23.5 -14.5q-17 -11 -27.5 -16.5t-32 -11t-46.5 -5.5v0zM-473 379q-5 0 -7 4q-2 7 5 10l190 66q7 2 9 -5t-4 -9l-190 -66h-3v0zM-1138 476v0q-6 0 -11 6
q-19 22 -48 20q-6 0 -10.5 4t-5 10t3.5 10.5t10 4.5q44 3 72 -31q10 -11 -1 -20q-4 -4 -10 -4v0z" />
    <glyph glyph-name="yuyi" unicode="&#xe600;" 
d="M422.5 294.5q45.5 -45.5 107.5 -45.5t108 46l215 215q45 44 44.5 106t-46 107.5t-107.5 45.5t-108 -46l-213 -213q-46 -46 -46 -108t45.5 -107.5zM719 213q-83 -78 -188.5 -74t-182.5 81t-81 182.5t74 188.5l-61 61q-59 -59 -82.5 -140t-8 -163.5t64.5 -150.5l-118 -117
l72 -71l118 118q68 -49 150.5 -64.5t164 7.5t140.5 82z" />
    <glyph glyph-name="xiaochengxu" unicode="&#xe60a;" horiz-adv-x="1026" 
d="M302 347q-2 -1 -7 -4q-228 -108 -91 -241q28 -28 66 -36t72.5 1.5t63 31.5t40.5 50q4 52 4 492q0 12 9.5 35t29 51t46.5 56t65 48.5t81.5 30t99.5 -1t115 -44.5q7 -3 18 -10.5t37 -33.5t44 -54t27 -73t-2 -91.5t-55 -107.5t-120 -123q-2 -1 -4.5 -1t-11.5 0.5t-16.5 1.5
t-18.5 3.5t-19 7.5t-17 12t-11.5 17.5t-4.5 24t4 31.5q-1 9 14.5 24t37.5 34t43.5 41.5t33.5 51.5t6 57q-10 35 -37 61.5t-62.5 36t-71 6t-66.5 -29.5t-46 -70v-481q1 -22 -15 -55t-48 -70t-81.5 -62t-115 -31t-149.5 22q-7 3 -19.5 9.5t-44 31t-54.5 53.5t-41 78.5
t-15 105.5q6 68 62 139t127 97q31 8 55 3.5t38.5 -20t20.5 -34t2 -38t-18 -33.5z" />
    <glyph glyph-name="xiaochengxu1" unicode="&#xe64e;" 
d="M0 236q3 63 54 116t136 90q82 36 114 -32q8 -18 8 -32.5t-4.5 -23.5t-17.5 -18t-21.5 -13t-25.5 -11q-42 -18 -66 -42.5t-30 -58t14 -73.5q27 -56 80 -72t110 6q93 33 90 145q-3 161 0 343q4 203 192 270q86 31 181.5 5.5t153.5 -94.5q44 -52 52.5 -122t-14 -132.5
t-73.5 -112t-119 -62.5q-69 -14 -93 38q-18 41 32 85q6 5 42 26q54 31 77.5 67.5t2.5 89.5q-38 97 -162 80q-61 -8 -93 -43.5t-32 -96.5q0 -42 1 -120.5t0.5 -141.5t-3.5 -119q-3 -69 -48.5 -131.5t-115 -98.5t-141.5 -33q-121 4 -202 93.5t-79 228.5v0z" />
    <glyph glyph-name="erweima-pc-off" unicode="&#xe60b;" 
d="M146 750h79v-79h-79v79zM369 894h-367v-367h144v-63h79v63h144v80h63v64h-63v223zM289 607h-207v207h207v-207zM146 97h79v-79h-79v79zM799 750h79v-79h-79v79zM512 390v-86h80v80h63v80h-63v63h-80v-64v-73zM512 99v-81h80v143h63v80h-143v-69v-73zM592 18h63v-64h-63
v64zM432 -46v-80h160v80h-76h-84zM735 161h-80v-143h144v79h-64v64zM799 -126h223v80h-144v64h-79v-64v-80zM1022 384v80h-144v-80h75h69zM942 97h80v-79h-80v79zM432 607h80v-80h-80v80zM799 464v63h223v367h-367v-80h-143v-64h143v-79h-63v-64h63v-80h80v-63h64zM735 814
h207v-207h-207v207zM735 304h64v-63h-64v63zM878 161h-79v-64h143v144h80v63h-144v-59v-84zM432 750h80v-79h-80v79zM225 384h64v-80h-64v80zM432 464h-143v-80h80v-80h63v86v74zM369 18v143h63v80h-286v143h-144v-80h80v-63h-80v-367h367v80h63v64h-63zM289 -46h-207v207
h207v-207zM432 304h80v-63h-80v63zM655 384h80v-80h-80v80zM799 384h79v-80h-79v80z" />
    <glyph glyph-name="tongxunlu_tongxunlu" unicode="&#xe809;" 
d="M918 410h-176q-12 0 -12 -20v-19q0 -19 12 -19h176q13 0 13 19v23q3 7 -1 11.5t-12 4.5zM928 278h-131q-7 0 -7 -19v-19q0 -19 7 -19h131q6 0 6 19v19q0 6 -2 12.5t-4 6.5zM685 544q-6 0 -11 -5t-5 -14v-19q0 -20 16 -20h233q6 0 11 5.5t5 14.5v19q0 19 -16 19h-233z
M771 112q-3 11 -11 20.5t-30 25t-35.5 24.5t-54.5 36q-32 19 -51 28q-1 1 -19.5 13t-26.5 19t-17 21.5t-8 30.5q0 21 13 38q32 48 35 54q17 27 24.5 56t7.5 76q0 75 -46.5 135t-116.5 60h-13q-71 0 -117 -59.5t-46 -135.5q0 -60 16 -103q10 -25 23 -41l2.5 -5t3.5 -5
q0 -2 1.5 -3.5t1.5 -2.5l19 -29q13 -22 13 -42q0 -8 -2.5 -15.5t-5 -13.5t-9 -12.5l-10 -10t-12 -9t-11 -7.5t-11.5 -6.5t-9 -5.5q-11 -5 -29 -17t-22 -15q-70 -41 -97.5 -61.5t-34.5 -40.5v-61q0 -12 8.5 -22t20.5 -10h624q12 0 20.5 9t8.5 23v51q3 7 3 13z" />
    <glyph glyph-name="mobaidanche" unicode="&#xe6de;" 
d="M632 761q11 2 30 1q30 -5 44 -12q30 -14 50 -42.5t23 -61.5q2 -31 -5 -53q0 -1 -2 -4q-10 5 -11 6q-6 6 -12 14v4t0.5 3.5t0.5 3.5q6 49 -30 84q-19 18 -45 25q-25 6 -44 1q-3 -1 -9 3q-12 11 -16 21q7 4 26 7zM627 701q4 2 12 3q24 4 44 -6q16 -8 27 -23.5t13 -33.5
q0 -23 -3 -31q-14 6 -25 22l-3 11q-5 19 -21 27q-7 4 -17 5q-5 1 -12 8q-10 8 -15 18zM356 580zM214 443q5 1 33 2q13 0 29 -4q26 -7 41 -16q52 -28 72 -85q6 -21 7 -28q2 -11 1 -39q-3 -38 -23 -70q-30 -46 -80 -65q-32 -12 -68 -9t-66 21q-20 11 -40 33q-42 48 -39 109
q0 13 6 40q9 28 24 47q38 54 103 64zM226 415h27q-2 1 -13 1q-13 0 -14 -1zM219 412q-45 -7 -76 -42q-36 -42 -30 -96q5 -50 44 -83q36 -32 84 -31q58 0 96 46q30 37 29 81q1 33 -16.5 63t-46.5 46q-38 23 -84 16zM735 438q23 8 46 7q30 1 51 -8q47 -14 77 -54
q24 -31 31 -70q5 -34 -4 -67.5t-31 -59.5q-44 -54 -113 -57q-55 -3 -99 27q-38 27 -56 70q-8 19 -11 44q-2 20 -1 25q2 31 12 53q19 46 63 74q17 10 35 16zM770 415h27q-1 1 -14 1q-12 0 -13 -1zM762 412q-34 -6 -60 -28q-44 -36 -45 -94q-2 -42 23 -76q26 -37 69 -49
q40 -11 80 4q35 13 57 45q25 34 24 74q0 21 -8 43q-18 49 -64 70q-36 17 -76 11zM528 642q9 1 38 1h38q16 1 32 -16q17 -18 28 -46q3 -8 12 -25q5 -9 26.5 -52t32.5 -66q-18 -6 -35 -16l-22 43q-6 13 -10 22h-1h-2q-2 -8 -5.5 -16t-8 -17.5t-6.5 -15.5q-44 -101 -51 -116
q-10 -23 -24 -34q-18 -13 -39 -14v-21.5v-22.5q15 0 19 -3q6 -6 6 -19h-25h-25q-5 0 -9 4q-6 6 -6 18h25v21.5v21.5q-3 1 -6 1h-56t-57 -1q1 28 -1 39q9 -1 59 -1q-4 8 -11 21.5t-9 17.5q-18 34 -51 98t-38 73q-13 25 -18 35q-29 0 -30 1q-15 2 -21 17q-5 11 -4 25h54h55
q17 0 25 -10q10 -11 11 -32q0 -1 -5 -1h-41q6 -13 21.5 -42t23.5 -44q46 -90 55 -107q18 -34 24 -47q4 -5 5 -5q3 0 9.5 0.5t9.5 -0.5q11 0 19 7q11 11 16 22q11 25 32.5 72t31.5 67q2 6 7.5 17.5t7.5 17.5q2 2 5 9t4 10q1 1 -1 4q-1 3 -5 11t-6 13q-15 28 -21 34q-4 4 -6 4
h-22h-22q-13 0 -21 11q-10 11 -11 32zM356 580zM219 412q46 7 84 -16q29 -16 46.5 -46t16.5 -63q1 -44 -29 -81q-38 -46 -96 -46q-48 -1 -84 31q-39 33 -44 83q-6 54 30 96q31 35 76 42zM179 380q-21 -14 -34.5 -36t-15.5 -47v-21q3 -37 30 -66q23 -24 57 -32q12 -2 34 -1
q23 2 44 14q23 12 38 34.5t18 48.5q-54 0 -134 -1q1 14 6 22q5 10 15 14q6 2 16 2h41.5h41.5q11 0 12 1q-5 19 -14 32q-15 25 -41 40t-55 14q-30 0 -59 -18zM762 412q40 6 76 -11q46 -21 64 -70q8 -22 8 -43q1 -40 -24 -74q-22 -32 -57 -45q-40 -15 -80 -4q-43 12 -69 49
q-25 34 -23 76q1 58 45 94q26 22 60 28zM757 394q2 -3 34 -68q7 -12 4 -25q-2 -7 -8 -15q-2 -2 -14 -11q-2 3 -3 6q-6 10 -22 42.5t-24 50.5q-1 2 -4 5q-12 -11 -16 -15q-18 -19 -25 -39q-11 -27 -5 -58q8 -47 51 -74q21 -13 45 -16q28 -2 47 4q17 6 34 18q34 26 41 68
q2 7 2 25q0 22 -11 44q-11 23 -33 39.5t-48 20.5q-9 2 -29 1q-12 -1 -16 -3zM226 415q1 1 14 1q11 0 13 -1h-27zM770 415q1 1 13 1q13 0 14 -1h-27z" />
    <glyph glyph-name="youxi1" unicode="&#xe60c;" 
d="M902 347h-200q-18 0 -24 -18q-13 -39 -42.5 -68.5t-68.5 -42.5q-18 -6 -18 -24v-200q0 -17 16 -23.5t28 5.5l327 327q12 12 5.5 28t-23.5 16zM567 550q39 -13 68.5 -42.5t42.5 -68.5q6 -18 24 -18h200q17 0 23.5 16t-5.5 28l-327 327q-12 12 -28 5.5t-16 -23.5v-200
q0 -18 18 -24zM457 218q-39 13 -68.5 42.5t-42.5 68.5q-6 18 -24 18h-200q-17 0 -23.5 -16t5.5 -28l327 -327q12 -12 28 -5.5t16 23.5v200q0 18 -18 24zM431 792l-327 -327q-12 -12 -5.5 -28t23.5 -16h200q18 0 24 18q13 39 42.5 68.5t68.5 42.5q18 6 18 24v200
q0 17 -16 23.5t-28 -5.5z" />
    <glyph glyph-name="jingyin" unicode="&#xe632;" 
d="M512 -85q55 0 93.5 38.5t38.5 93.5h-264q0 -55 38.5 -93.5t93.5 -38.5zM232 508v-265l-115 -94v-53h564l-411 552q-38 -65 -38 -140zM907 149l-115 94v265q0 102 -65.5 180t-165.5 95v21q0 14 -9.5 23.5t-23.5 9.5h-32q-14 0 -23.5 -9.5t-9.5 -23.5v-21q-65 -12 -119 -52
l-83 111q-7 9 -18 10.5t-20 -5t-10.5 -17.5t5.5 -20l86 -116h-0.5h-0.5l444 -598h1l85 -113q8 -11 21 -11v0q9 0 16 5q9 7 10.5 18t-4.5 20l-61 81h92v53z" />
    <glyph glyph-name="qiabao" unicode="&#xe610;" 
d="M960 41q0 -18 -6.5 -34.5t-18.5 -28.5q-18 -19 -43 -25l-19 -2h-716q-19 0 -36 7t-29 20q-20 19 -26 46q-2 10 -2 17v493q0 37 26 63t64 26h716q38 0 64 -26t26 -63v-135h-224q-37 0 -63.5 -25.5t-26.5 -62.5q1 -26 11 -46q8 -16 26 -30t53 -14h224v-180zM826 669h-448
q981 514 1714 1302q-276 -316 -217 -320q51 -4 314 218q347 293 724 689q43 45 84 90q-2376 -1842 -2376 -1850l3 1q34 19 61 17.5t46 -9.5q22 -11 38 -29zM692 310.5q0 18.5 12.5 31.5t31.5 13t31.5 -13t12.5 -31.5t-12.5 -32t-31.5 -13.5t-31.5 13.5t-12.5 32z" />
    <glyph glyph-name="gongzhonghao" unicode="&#xe63d;" 
d="M633 239q0 25 15 52.5t36 56t42.5 63t36 85.5t14.5 111q0 133 -75.5 210.5t-189.5 77.5t-189.5 -77.5t-75.5 -210.5q0 -60 15 -111t36 -85.5t42 -63t36 -56t15 -52.5q0 -35 -24 -61t-60.5 -39.5t-78.5 -28.5t-78 -28.5t-60.5 -38.5t-24.5 -60v-111h894v111q0 35 -24 60
t-60.5 38.5t-78.5 28.5t-78.5 28.5t-60.5 39.5t-24 61zM512 -73l-79 108l52 188h53l53 -188z" />
    <glyph glyph-name="paishe" unicode="&#xe69b;" 
d="M511.5 531q-76.5 0 -130 -54t-53.5 -130t53.5 -130t130 -54t130 54t53.5 130t-53.5 130t-130 54zM205 761h-107v-47h107v47zM952 669h-200q-29 20 -50 64q-9 18 -32 29t-42 12l-19 2h-233h-7.5t-18 -10.5t-26.5 -32.5q-27 -45 -52 -64h-201q-27 0 -46 -20.5t-19 -49.5
v-535q0 -28 19 -48.5t46 -20.5h881q27 0 46 20.5t19 48.5v535q0 29 -19 49.5t-46 20.5zM511.5 117q-95.5 0 -162.5 67.5t-67 162.5t67 162t162.5 67t162.5 -67t67 -162t-67 -162.5t-162.5 -67.5zM841 531q-16 0 -27.5 11t-11.5 27t11.5 27t27.5 11t27 -11t11 -27t-11 -27
t-27 -11z" />
    <glyph glyph-name="shoufukuan" unicode="&#xe666;" 
d="M128 704h-64v0h-1v-64h1v-128h64v128h128v64h-128v0zM897 704v0h-129v-64h129v-128h64v192h-64zM128 256h-64v-128h-1v-64h1v0h64v0h128v64h-128v128zM897 128h-129v-64h129v0h64v192h-64v-128zM768 559l-319 -239l-145 105l-24 -24l169 -207l342 342z" />
    <glyph glyph-name="biaoqing" unicode="&#xe612;" 
d="M794 511q46 0 78 33t30 80q-2 41 -32 71t-71 31q-46 3 -79.5 -29t-33.5 -79q0 -44 32 -75.5t76 -31.5zM242 511q46 0 78 33t30 80q-2 41 -32 71t-71 31q-47 3 -80 -29t-33 -79q0 -44 31.5 -75.5t76.5 -31.5zM134 314q0 -94 51.5 -173t140 -125t192.5 -46q105 0 193.5 46
t140 125t51.5 173h-769z" />
    <glyph glyph-name="pinglun" unicode="&#xe618;" horiz-adv-x="1303" 
d="M1015 779h-658q-45 0 -76.5 -31t-31.5 -77v-147l-133 -151l133 -155v-122q0 -46 31 -77t77 -31h658q46 0 77 31t31 77v576q0 45 -31 76t-77 31zM512 276q-45 0 -76.5 31.5t-31.5 76.5t31.5 76.5t76.5 31.5t76.5 -31.5t31.5 -76.5t-31.5 -76.5t-76.5 -31.5zM979 384
q0 -45 -31.5 -76.5t-76.5 -31.5q-44 0 -76 31.5t-32 76.5t32 76.5t76.5 31.5t76 -31.5t31.5 -76.5z" />
    <glyph glyph-name="lingqian" unicode="&#xe617;" 
d="M511.5 894q-103.5 0 -197.5 -40.5t-162.5 -108.5t-109 -162.5t-40.5 -198t40.5 -198t109 -162.5t162.5 -108.5t197.5 -40.5t198 40.5t162.5 108.5t108.5 162.5t40.5 198t-40.5 198t-108.5 162.5t-162.5 108.5t-198 40.5zM511.5 -35q-113.5 0 -210 56.5t-153 153
t-56.5 210t56.5 210.5t153 153t210 56t210.5 -56t153 -153t56 -210.5t-56 -210.5t-153 -153t-210.5 -56zM399 547l-112 -103l230 -247l234 245l-102 105h-250z" />
    <glyph glyph-name="shenghuojiaofei" unicode="&#xe619;" 
d="M810 572q-48 -12 -65 -51q66 -65 89 -156.5t-6 -167.5q-18 -48 -49.5 -91t-74 -78.5t-98.5 -56.5t-117 -20q-132 31 -214 99.5t-107 189.5q-22 128 60.5 259t249.5 271q35 64 -18 123q-94 -92 -162 -172.5t-122 -167t-76.5 -171t-11.5 -164.5q41 -298 390 -346
q377 10 451 346q18 103 -14 193.5t-105 160.5zM471 550l-94 -249h144l-68 -169l187 223h-151l94 195h-112z" />
    <glyph glyph-name="gongyi" unicode="&#xe61b;" 
d="M148 489q1 29 7.5 52.5t21 44.5t40.5 33t62 12q75 0 124 -42t91 -140q4 29 5.5 45t1 42t-5 42t-14.5 37t-26.5 36t-42.5 30t-61 28q-82 29 -167.5 3t-133.5 -98q-29 -43 -44 -96q-8 -57 15.5 -112.5t71.5 -102t108.5 -85t131.5 -67.5q-179 163 -185 338zM515 625
q39 63 98 99.5t154 43.5q-20 21 -83.5 38.5t-98.5 12.5q-55 -6 -148 -103q65 -22 78 -91zM1024 554q-5 76 -48 139t-109.5 98.5t-139.5 36.5q99 -35 146 -90.5t30 -145.5q-16 -113 -111.5 -220t-266.5 -221q1 -7 4 -20q6 -37 9.5 -55t9.5 -45.5t11.5 -40.5t14 -27.5
t18.5 -19t22 -3.5q58 137 196 265q98 80 158.5 173t55.5 176zM396 431q-5 -30 20 -48q-36 5 -62 -9q8 -6 24.5 -18t24 -17.5t22 -14.5t24.5 -12t24 -6.5t28 -3t30 3.5q49 12 14 49q-43 44 -145 75q-2 1 -4 1z" />
    <glyph glyph-name="chengshifuwu" unicode="&#xe61c;" 
d="M1023 150q-4 51 -29.5 91.5t-67.5 62.5l1 292l-111 68l-90 -57l-1 -284l-36 1q-3 9 -6 20h5l-2 392l-172 106l-154 -101l-1 -230q-154 -29 -191 -221l-38 -1q-73 -3 -107 -67q-26 -56 -18.5 -123.5t38.5 -116.5q36 -56 84 -56h4h757l7 4q63 29 98 89.5t30 130.5zM752 593
l64 41l86 -52l-1 -267q-1 0 -5 1.5t-6 2.5l-139 3zM515 782l121 -74l1 -277q-76 99 -228 85l1 197zM870 2h-741q-9 0 -22 21q-21 33 -27 81.5t11 82.5q13 25 41 26l102 3l4 32q7 49 21 85.5t31 56.5t39 31.5t40.5 15t40.5 4.5h3q16 2 33 2q73 0 114.5 -39.5t62.5 -125.5
l7 -29l243 -4q32 -11 51.5 -37.5t22.5 -63.5q3 -40 -16.5 -80t-60.5 -62v0zM447 639h50v-50h-50v50zM549 639h50v-50h-50v50zM777 511h73v-23h-73v23zM776 436h74v-23h-74v23z" />
    <glyph glyph-name="licaitong" unicode="&#xe61e;" 
d="M975 193q41 204 -17 368q-45 121 -110.5 194t-157.5 105q-4 1 -11.5 3t-29 6.5t-41.5 6t-44 -1.5t-42 -12t-31.5 -29.5t-14.5 -50.5q-3 -27 18 -62.5t52.5 -67t64 -59t54.5 -44t23 -16.5q-1 -29 2.5 -57.5t6 -46.5t-2 -58.5t-19.5 -100.5q13 10 26 13t20.5 13t25.5 48
q-13 -116 -29 -184q-121 -163 -315 -168q-121 -15 -212 65t-136 264q3 192 223 402q43 68 28 125q-66 -93 -112 -92q-4 4 -18 5.5t-40.5 4.5t-50.5 7q-28 -146 -11 -156q-49 -56 -62.5 -136t-4.5 -185q18 -170 143 -274.5t342 -129.5q80 8 144 25.5t119.5 48.5t95.5 79
t63 112q60 -17 100 -75q9 10 10 23.5t-6 28t-17.5 28.5t-25.5 31zM403 333zM317 332.5q0 -35.5 25 -61t61 -25.5t61.5 25.5t25.5 61t-25.5 61t-61.5 25.5t-61 -25.5t-25 -61z" />
    <glyph glyph-name="jieqian" unicode="&#xe61f;" 
d="M122 728v-100h62v38h778v-432h-31v-63h93v557h-902zM1 40h902v553h-902v-553zM63 531h778v-429h-778v429zM478 349l4 -2l4 7h68v42h-42l39 62l-35 22l-53 -84h-15l-57 81l-34 -24l40 -57h-37v-42h66l4 -4l6 4v-44h-93v-42h93v-79h42v79h79v42h-79v39z" />
    <glyph glyph-name="yinhangqia" unicode="&#xe620;" 
d="M955 776h-885q-27 0 -47 -19.5t-20 -47.5v-651q0 -28 19.5 -47.5t47.5 -19.5h885q28 0 48 19.5t20 47.5v651q0 28 -20 47.5t-48 19.5zM929 85h-832v598h832v-598zM155 560h708v-94h-708v94z" />
    <glyph glyph-name="hangyongqia" unicode="&#xe621;" horiz-adv-x="1026" 
d="M960 159l66 -49v664l-1023 1l3 -777l1019 -2l-265 200v-130l-689 -2l1 646l884 -2zM161 552h708v-88h-708v88z" />
    <glyph glyph-name="daojia" unicode="&#xe622;" 
d="M151 567l-6 221q58 60 113.5 87t113.5 14q50 -20 79.5 -46.5t44.5 -63.5q26 -67 2 -145q-24 -79 -90 -165t-191 -212q145 95 238 109q338 26 365 101q-15 -60 -77 -106t-165 -86q93 17 174 49q82 33 127 109.5t35 163.5q-4 26 -8 51q34 -50 54 -100q31 -78 24 -159.5
t-48 -155.5q-57 -103 -160 -182q113 33 178 112q-24 -51 -43.5 -83.5t-53.5 -70t-75 -61t-104.5 -43t-146.5 -28.5q-50 -5 -106 -4q-169 5 -244 39q-78 35 -113.5 115.5t-21 171t72.5 157.5q46 55 120 99q71 43 113 99q85 109 65 187q-4 17 -17 29t-30 15q-54 7 -108 -50.5
t-111 -167.5z" />
    <glyph glyph-name="jie" unicode="&#xe623;" 
d="M5 626l53 -80q196 132 213 299l-95 10q-13 -123 -171 -229zM262 526l-93 -24q16 -63 -159 -202l59 -75q35 27 61 50v-357h96v461q54 79 36 147zM699 534h-124l-3 132h119v96h-121l-3 113l-96 -2l3 -111h-127v-96h129l3 -132h-144v-96h364v96zM567 52v106h128v96h-128v100
h-96v-100h-136v-96h136v-141q-63 -20 -122 -27l12 -95q157 19 352 121l-44 85q-56 -29 -102 -49zM811 806h176v-96h-176v96zM1023 590h-252v-96h96q6 -426 -7 -494q-24 -8 -74 -6l-5 -96h27q78 0 119 29l5 4l4 5q20 24 26 128t1 430h60v96v0z" />
    <glyph glyph-name="dianyingpiao" unicode="&#xe624;" 
d="M997 458l26 8v297h-1021v-292l25 -9q35 -13 51.5 -41.5t15.5 -59.5q-1 -30 -18.5 -52t-46.5 -30l-27 -8v-263h1021v263l-23 9q-30 13 -45.5 42.5t-13.5 60.5q2 58 56 75zM949 518q-37 -19 -58.5 -53t-24.5 -79q-2 -49 20.5 -93t62.5 -69v-142h-873v135q41 20 65.5 57.5
t26.5 83.5q2 52 -23 95.5t-69 67.5v167h873v-170zM293 503h288v-266h-288v266zM751 503l-143 -139l143 -124v263z" />
    <glyph glyph-name="youxuan" unicode="&#xe625;" horiz-adv-x="1025" 
d="M3 847v-836q0 -36 25.5 -61.5t61.5 -25.5h848q36 0 61.5 25.5t25.5 61.5v836h-1022zM972 794v-656h-916v656h916zM938 -23h-848q-14 0 -24 10t-10 24v74h916v-74q0 -14 -10 -24t-24 -10zM534 408h10q95 5 163.5 81.5t92.5 204.5l-51 10q-21 -109 -76.5 -174.5
t-130.5 -68.5q-79 -4 -146 62.5t-101 182.5l-50 -14q22 -76 56 -133t74 -88.5t79.5 -47t79.5 -15.5z" />
    <glyph glyph-name="yilong" unicode="&#xe626;" horiz-adv-x="1025" 
d="M111 200q-18 27 -24 65.5t-4.5 68t7.5 85.5q-18 -1 -29 -2.5t-22.5 -3.5t-16 -5.5t-10.5 -9t-6.5 -13t-3.5 -18.5t-1 -24.5t0 -32.5q1 -40 8 -69q7 -31 21 -59t29.5 -50t39.5 -43t44 -36t52 -31t53 -25.5t57 -22.5t55.5 -19t56.5 -18q15 -5 22 -7q-204 93 -328 270z
M639 704l21 -15q36 -25 54 -38.5t49.5 -39.5t48.5 -45t40 -50t35.5 -61t23.5 -69.5t14 -84.5q-11 -102 -85.5 -176t-167.5 -82q-199 -5 -338 215q-36 59 -17 126l10 33q97 -146 255 -192q14 -4 29 -6q112 -15 171 49q48 53 34 120q-13 65 -81 111q-52 36 -121 41
q-102 7 -226 -13q-33 78 -111 127q105 -5 152 16q-41 34 -98 46l14 39l-132 7q-53 27 -151 25l-57 54q-10 -50 0 -79q33 -43 89 -51q65 -4 67 -48l-106 2q32 -73 64 -82q62 7 112 0q12 -69 59 -100q-1 0 -1.5 -0.5t-0.5 -1.5q-48 -46 -60.5 -113t16.5 -127
q23 -51 56.5 -89.5t82 -69.5t117.5 -49t157 -22q10 0 21 1q78 5 138 23t107.5 52t73.5 90t28 133q-23 340 -386 394zM623 480q42 -18 70.5 -52.5t34.5 -77.5q2 -13 2 -27q-1 -29 -26 -46.5t-53 -9.5q-44 13 -110 60q-10 7 -17 14q-61 57 -102 154q70 40 201 -15z" />
    <glyph glyph-name="huochepiao" unicode="&#xe627;" 
d="M843 894h-659q-54 0 -92 -38t-38 -91v-663q0 -53 38 -91t92 -38h73l-78 -92l87 -3l82 95h315l81 -100h98l-75 100h76q53 0 91 38t38 91v663q0 53 -38 91t-91 38zM906 102q0 -25 -18.5 -43.5t-44.5 -18.5h-659q-26 0 -44.5 18.5t-18.5 43.5v663q0 25 18.5 43.5t44.5 18.5
h659q26 0 44 -18.5t18 -43.5v-663h1zM185 741h637v-281h-637v281zM285 221zM213 221q0 -30 21 -51.5t51 -21.5t51 21.5t21 51.5t-21 51t-51 21t-51 -21t-21 -51zM744 221zM672 221q0 -30 21 -51.5t51 -21.5t51 21.5t21 51.5t-21 51t-51 21t-51 -21t-21 -51z" />
  </font>
</defs>
</svg>
